<svg xmlns="http://www.w3.org/2000/svg" viewBox="0 0 900 918.8"><defs><style>.cls-1{fill:#fff;}</style></defs><title>Recurso 1</title><g id="Capa_2" data-name="Capa 2"><g id="Capa_4" data-name="Capa 4"><path class="cls-1" d="M139.67,172.92c0-7.92.28-14.48-.08-21s-1.39-13-2.41-22c-32.23,17.71-56.91,41-80.58,69,.3-3.57-.09-5.69.69-7.21,9.88-19.09,20.13-38,29.74-57.21,1.44-2.9,1.45-8-.18-10.69-9.12-14.92-19-29.39-28.52-44C47.1,62.53,35.61,45.48,24.85,28,17.6,16.19,26.6,3.46,43.27.4,46-.1,48.86.2,51.66.2Q166.34.16,281,.18c14.74,0,25.54,8,33.38,19.55C329,41.35,343,63.41,357.23,85.25c18.61,28.46,37.4,56.81,55.88,85.35,15.82,24.44,31.25,49.14,47.08,73.58,2.06,3.19,5.48,5.5,8.27,8.22,2.6-3,5.73-5.6,7.72-8.91q20.42-33.92,40.42-68.07c12.33-21,24.36-42.12,36.82-63,9.88-16.55,20.3-32.77,30.33-49.23,8.57-14,17.19-28.08,25.31-42.38S629.46.14,645.49.13q61.15,0,122.32,0c27.52,0,55,.19,82.56-.1,10.08-.1,18.39,2.84,23,12,4.11,8.21,1.9,16.14-3.17,23.71q-16.73,25-32.78,50.39c-13.87,22.06-27.21,44.44-41.07,66.5-15.39,24.48-31.12,48.76-46.69,73.13-14.86,23.28-29.89,46.46-44.5,69.89C688,323.11,671.33,351,654.18,378.48c-14.36,23-29.33,45.69-43.51,68.84-1.8,2.94-2,8.78-.28,11.65,7.86,13,16.65,25.42,25.19,38q19,27.94,38,55.82c5.43,8,10.92,15.88,16.19,24,.95,1.45,1,3.5,1.41,5.28l-1.62,1.5c-4.12-2.13-8.15-4.43-12.36-6.37-39.33-18.17-80.51-26.87-123.78-22-11.4,1.28-22.5,5.87-33.51,9.6-5.43,1.84-6.21,7.27-1.73,9.69,20.34,11,36.29,27.13,50.27,45a375.68,375.68,0,0,1,29.41,44.17c18.74,32.48,35.69,66,55.05,98.12a226.69,226.69,0,0,0,74.69,76c22.49,14,46.21,25.6,72.1,31.84q30.71,7.41,61.76,13.28c9.45,1.79,19.23,2,28.89,2.41,6.49.27,9,3.58,9.52,9.5,1,12-7.37,21.75-20.29,23.33a73.6,73.6,0,0,1-9.16.29c-74.41,0-148.83-.6-223.23.44-25.3.35-39.24-12.9-50.69-32.29-5.17-8.76-10.8-17.24-16.22-25.84-14.87-23.58-29.62-47.22-44.63-70.7C521,766.88,505.87,744,491.11,721c-14.35-22.42-28.47-45-42.7-67.48-2.44-3.86-4.75-7.81-7.46-11.46-3.09-4.16-6.42-4.87-9.49.26-8.74,14.58-17.55,29.13-26.27,43.73Q390,711.46,374.9,737c-6.58,11.12-13,22.36-19.62,33.45C341,794.26,326.48,818,312.16,841.9c-8,13.27-15.55,26.77-23.65,40-4.74,7.72-9.89,15.23-15.31,22.49-7.6,10.19-18.27,13.93-30.73,13.92q-109.71-.12-219.41,0c-5.6,0-11.21.36-16.8.21-2.1-.06-4.18-1.1-6.26-1.7.59-1.82.84-3.87,1.83-5.43C18.84,884.58,36,857.94,53,831.18c13.87-21.83,27.26-44,41.41-65.63q20.17-30.9,41.54-61c23.13-32.7,49.89-62.27,80.94-87.55,24.41-19.87,50-38.47,79.12-51,24.69-10.63,50-19.74,75.12-29.46,23.37-9,47.29-16.88,70-27.3,29.34-13.44,46-38.09,54.34-68.8,1.81-6.7-1.11-9.79-7.35-10.31-13.68-1.14-27.38-2-41.06-3.08-34.74-2.84-67.87-10.88-95.21-33.89-7.76-6.54-14.06-15.43-19.29-24.27-14.77-25-33.23-46.67-58.21-61.23-17.59-10.25-37.16-17.13-56-25.22-5.35-2.3-11.1-3.66-16.7-5.35-8.32-2.51-10.68-5.46-9.11-14,2.76-15,6.41-29.86,9.13-44.87A424.54,424.54,0,0,0,208.24,127c-.22-6.11-4.58-7.79-10.31-3.56-9.4,6.95-18.56,14.28-27.45,21.88C160.31,154,150.54,163.13,139.67,172.92Z"/><path class="cls-1" d="M255.08,379.64c20.52,5.88,35.08,25.85,60.3,26.57-7.11,8.55-14.77,13-23,11.83C270.44,415,255.17,404.08,255.08,379.64Z"/></g></g></svg>