<svg xmlns="http://www.w3.org/2000/svg" viewBox="0 0 530 530"><defs><style>.cls-1{fill:#ff5722;}.cls-2{fill:#fff;}</style></defs><title>Recurso 4</title><g id="Capa_2" data-name="Capa 2"><g id="Capa_1-2" data-name="Capa 1"><circle class="cls-1" cx="265" cy="265" r="265"/><path class="cls-2" d="M158.65,166.83c0-2.72.1-5,0-7.2s-.47-4.46-.82-7.55c-11.05,6.07-19.5,14-27.62,23.64a8.58,8.58,0,0,1,.24-2.46c3.39-6.55,6.9-13,10.19-19.61a4.41,4.41,0,0,0-.06-3.66c-3.12-5.12-6.5-10.07-9.77-15.1-3.85-5.9-7.79-11.74-11.48-17.73-2.48-4,.61-8.41,6.32-9.46a16.13,16.13,0,0,1,2.87-.06q39.3,0,78.6,0c5,0,8.75,2.73,11.44,6.7,5,7.41,9.79,15,14.68,22.45,6.38,9.76,12.81,19.47,19.15,29.25,5.42,8.38,10.71,16.84,16.13,25.22a18.43,18.43,0,0,0,2.84,2.81A22.29,22.29,0,0,0,274,191q7-11.62,13.85-23.33c4.23-7.18,8.35-14.43,12.62-21.59,3.39-5.67,7-11.23,10.4-16.87,2.93-4.81,5.88-9.62,8.67-14.52s7-7.08,12.48-7.09h41.92c9.43,0,18.86.07,28.29,0,3.46,0,6.3,1,7.87,4.1,1.41,2.81.65,5.53-1.09,8.12-3.82,5.71-7.58,11.46-11.23,17.27-4.75,7.56-9.33,15.23-14.08,22.79-5.27,8.39-10.66,16.71-16,25.06-5.09,8-10.24,15.92-15.24,24-5.88,9.43-11.58,19-17.46,28.41-4.92,7.89-10.05,15.66-14.91,23.59a4.62,4.62,0,0,0-.1,4c2.7,4.45,5.71,8.72,8.64,13q6.5,9.57,13,19.12c1.86,2.73,3.74,5.45,5.54,8.21a6.11,6.11,0,0,1,.49,1.81l-.56.51c-1.41-.73-2.79-1.51-4.23-2.18-13.48-6.22-27.59-9.2-42.42-7.54-3.91.44-7.71,2-11.49,3.29-1.86.63-2.12,2.49-.59,3.32,7,3.78,12.44,9.3,17.23,15.41A129.13,129.13,0,0,1,315.69,335c6.42,11.13,12.23,22.63,18.86,33.63a77.67,77.67,0,0,0,25.6,26.05c7.71,4.81,15.83,8.77,24.71,10.91q10.51,2.54,21.16,4.55a69.47,69.47,0,0,0,9.9.83c2.23.09,3.1,1.23,3.26,3.26.34,4.11-2.52,7.45-6.95,8a25.28,25.28,0,0,1-3.14.1c-25.5,0-51-.21-76.5.15-8.67.12-13.44-4.42-17.37-11.07-1.77-3-3.7-5.9-5.56-8.85-5.09-8.08-10.15-16.18-15.29-24.23s-10.22-15.74-15.28-23.64c-4.92-7.69-9.76-15.42-14.63-23.13-.84-1.32-1.63-2.67-2.56-3.92-1.06-1.43-2.2-1.67-3.25.08-3,5-6,10-9,15q-5.2,8.71-10.38,17.45c-2.25,3.82-4.44,7.67-6.72,11.47-4.91,8.18-9.87,16.32-14.78,24.5-2.72,4.55-5.33,9.17-8.1,13.69-1.62,2.65-3.39,5.22-5.25,7.71-2.6,3.49-6.26,4.78-10.53,4.77q-37.59,0-75.19,0c-1.92,0-3.84.13-5.76.07a9.32,9.32,0,0,1-2.14-.58,7.69,7.69,0,0,1,.63-1.86c5.82-9.17,11.71-18.29,17.53-27.46,4.75-7.49,9.34-15.08,14.19-22.5q6.92-10.57,14.23-20.9a150.31,150.31,0,0,1,27.74-30c8.37-6.81,17.14-13.18,27.12-17.48,8.46-3.64,17.14-6.76,25.74-10.09,8-3.1,16.2-5.78,24-9.36,10-4.6,15.77-13.05,18.62-23.58.62-2.29-.39-3.35-2.52-3.53-4.69-.39-9.39-.67-14.07-1.05-11.91-1-23.26-3.73-32.63-11.62a32.27,32.27,0,0,1-6.61-8.31c-5.06-8.56-11.39-16-19.95-21-6-3.51-12.74-5.87-19.18-8.64a53.62,53.62,0,0,0-5.72-1.83c-2.86-.86-3.66-1.87-3.13-4.79.95-5.15,2.2-10.23,3.13-15.38a144.93,144.93,0,0,0,2.24-31.26c-.08-2.1-1.57-2.67-3.53-1.22-3.22,2.38-6.36,4.89-9.41,7.49C165.73,160.34,162.38,163.47,158.65,166.83Z"/><path class="cls-2" d="M198.2,237.67c7,2,12,8.86,20.67,9.1-2.44,2.93-5.06,4.45-7.89,4.06C203.47,249.79,198.23,246,198.2,237.67Z"/></g></g></svg>