<?xml version="1.0" encoding="utf-8"?>
<!-- Generator: Adobe Illustrator 22.0.1, SVG Export Plug-In . SVG Version: 6.00 Build 0)  -->
<svg version="1.1" id="Capa_1" xmlns="http://www.w3.org/2000/svg" xmlns:xlink="http://www.w3.org/1999/xlink" x="0px" y="0px"
	 viewBox="0 0 1096.4 971.3" style="enable-background:new 0 0 1096.4 971.3;" xml:space="preserve">
<style type="text/css">
	.st0{fill:#FD7D3A;}
	.st1{fill:#FFBD60;}
	.st2{fill:#FF4815;}
	.st3{fill:#FDB762;}
	.st4{fill:#DD2C0A;}
	.st5{fill:#E56D38;}
	.st6{fill:#FCAD56;}
	.st7{fill:#F3491F;}
</style>
<g>
	<g>
		<polygon class="st0" points="8.3,0 548.2,122.5 548.2,971.3 293.4,696.3 0,543.8 160.9,220.9 		"/>
		<polygon class="st1" points="8.3,0 383.1,154.5 160.9,220.9 		"/>
		<polygon class="st2" points="0,543.8 383.1,154.5 160.9,220.9 		"/>
		<polygon class="st3" points="548.2,971.3 478.7,896.3 548.2,827.9 		"/>
		<polygon class="st3" points="478.7,479.3 466.3,439.7 316.4,380.3 452.2,520.3 		"/>
		<polygon class="st4" points="160.9,220.9 308,230.9 383.1,154.5 		"/>
	</g>
	<g>
		<polygon class="st5" points="1088.2,0 548.2,122.5 548.2,971.3 803.1,696.3 1096.4,543.8 935.6,220.9 		"/>
		<polygon class="st6" points="1088.2,0 713.3,154.5 935.6,220.9 		"/>
		<polygon class="st7" points="1096.4,543.8 713.3,154.5 935.6,220.9 		"/>
		<polygon class="st6" points="548.2,971.3 617.7,896.3 548.2,827.9 		"/>
		<polygon class="st6" points="617.7,479.3 630.1,439.7 780,380.3 644.2,520.3 		"/>
		<polygon class="st4" points="935.6,220.9 788.5,230.9 713.3,154.5 		"/>
	</g>
</g>
</svg>
