<svg xmlns="http://www.w3.org/2000/svg" viewBox="0 0 1251.23 586"><defs><style>.cls-1{fill:#ff5722;}.cls-2{fill:#fff;}</style></defs><title>Recurso 2</title><g id="Capa_2" data-name="Capa 2"><g id="Capa_1-2" data-name="Capa 1"><rect class="cls-1" x="346.68" width="430.96" height="586"/><path class="cls-2" d="M455.81,194.83c0-2.72.09-5,0-7.2s-.48-4.46-.83-7.55c-11,6.07-19.5,14-27.61,23.64a8.23,8.23,0,0,1,.24-2.46c3.38-6.55,6.89-13,10.19-19.61a4.41,4.41,0,0,0-.07-3.66c-3.12-5.12-6.5-10.07-9.77-15.1-3.84-5.9-7.78-11.74-11.47-17.73-2.49-4,.6-8.41,6.31-9.46a16.25,16.25,0,0,1,2.88-.06q39.3,0,78.59,0c5.05,0,8.76,2.73,11.44,6.7,5,7.41,9.79,15,14.68,22.45,6.38,9.76,12.82,19.47,19.15,29.25,5.42,8.38,10.71,16.84,16.14,25.22a17.92,17.92,0,0,0,2.83,2.81,23.08,23.08,0,0,0,2.65-3.05q7-11.62,13.85-23.33c4.22-7.18,8.34-14.43,12.62-21.59,3.38-5.67,6.95-11.23,10.39-16.87,2.94-4.81,5.89-9.62,8.67-14.52s7-7.08,12.49-7.09h41.92c9.43,0,18.86.07,28.29,0,3.45,0,6.3,1,7.86,4.1,1.41,2.81.65,5.53-1.08,8.12q-5.73,8.57-11.24,17.27c-4.75,7.56-9.32,15.23-14.07,22.79-5.28,8.39-10.67,16.71-16,25.06-5.09,8-10.24,15.92-15.25,24-5.88,9.43-11.58,19-17.46,28.41-4.92,7.89-10,15.66-14.9,23.59a4.58,4.58,0,0,0-.1,4c2.69,4.45,5.71,8.72,8.63,13q6.51,9.57,13,19.12c1.86,2.73,3.74,5.45,5.55,8.21a6.1,6.1,0,0,1,.48,1.81l-.55.51c-1.41-.73-2.8-1.51-4.24-2.18-13.48-6.22-27.59-9.2-42.42-7.54-3.9.44-7.71,2-11.48,3.29-1.86.63-2.13,2.49-.59,3.32,7,3.78,12.43,9.3,17.22,15.41A126.67,126.67,0,0,1,612.84,363c6.43,11.13,12.23,22.63,18.87,33.63a77.73,77.73,0,0,0,25.59,26.05c7.71,4.81,15.84,8.77,24.71,10.91,7,1.69,14.08,3.22,21.16,4.55a69.61,69.61,0,0,0,9.91.83c2.22.09,3.09,1.23,3.26,3.26.33,4.11-2.53,7.45-7,8a25.12,25.12,0,0,1-3.13.1c-25.5,0-51-.21-76.5.15-8.67.12-13.45-4.42-17.38-11.07-1.77-3-3.7-5.9-5.55-8.85-5.1-8.08-10.15-16.18-15.3-24.23s-10.22-15.74-15.28-23.64c-4.91-7.69-9.75-15.42-14.63-23.13-.84-1.32-1.63-2.67-2.56-3.92-1-1.43-2.2-1.67-3.25.08-3,5-6,10-9,15q-5.2,8.71-10.38,17.45c-2.26,3.82-4.45,7.67-6.73,11.47-4.9,8.18-9.86,16.32-14.77,24.5-2.73,4.55-5.33,9.17-8.11,13.69-1.62,2.65-3.39,5.22-5.24,7.71-2.61,3.49-6.26,4.78-10.53,4.77q-37.6,0-75.19,0c-1.92,0-3.85.13-5.76.07a9.54,9.54,0,0,1-2.15-.58,8.67,8.67,0,0,1,.63-1.86c5.83-9.17,11.71-18.29,17.53-27.46,4.76-7.49,9.34-15.08,14.19-22.5q6.91-10.57,14.24-20.9a150.31,150.31,0,0,1,27.74-30c8.36-6.81,17.13-13.18,27.11-17.48,8.46-3.64,17.15-6.76,25.74-10.09,8-3.1,16.21-5.78,24-9.36,10-4.6,15.77-13.05,18.62-23.58.62-2.29-.38-3.35-2.52-3.53-4.69-.39-9.38-.67-14.07-1-11.91-1-23.26-3.73-32.63-11.62a32.48,32.48,0,0,1-6.61-8.31c-5.06-8.56-11.39-16-19.95-21-6-3.51-12.73-5.87-19.18-8.64a52.9,52.9,0,0,0-5.72-1.83c-2.85-.86-3.66-1.87-3.12-4.79.94-5.15,2.2-10.23,3.13-15.38a146.21,146.21,0,0,0,2.24-31.26c-.08-2.1-1.57-2.67-3.54-1.22-3.22,2.38-6.36,4.89-9.41,7.49C462.88,188.34,459.53,191.47,455.81,194.83Z"/><path class="cls-2" d="M495.36,265.67c7,2,12,8.86,20.66,9.1-2.44,2.93-5.06,4.45-7.89,4.06C500.62,277.79,495.39,274,495.36,265.67Z"/><path class="cls-2" d="M0,192.31H152.18v44.2H58.42v39.56h87.76v44.4H58.42v75.35H0Z"/><path class="cls-2" d="M380,293.89c0,57.57-34.68,105.72-104.38,105.72-68.45,0-101.53-47.85-101.53-105.44,0-58.56,36.28-105.64,104.58-105.64C342.8,188.53,380,233,380,293.89Zm-144.42-.61c0,37.37,12.41,63.36,41.91,63.36,31,0,41.22-27.58,41.22-62.26,0-37.13-10.84-62.89-42-62.89C247.73,231.49,235.57,255.41,235.57,293.28Z"/><path class="cls-2" d="M807.54,192.31V395.82H747.73V192.31Z"/><path class="cls-2" d="M1046.46,293.89c0,57.57-34.68,105.72-104.39,105.72-68.45,0-101.53-47.85-101.53-105.44,0-58.56,36.29-105.64,104.59-105.64C1009.27,188.53,1046.46,233,1046.46,293.89ZM902,293.28c0,37.37,12.41,63.36,41.91,63.36,31,0,41.22-27.58,41.22-62.26,0-37.13-10.84-62.89-42-62.89C914.2,231.49,902,255.41,902,293.28Z"/><path class="cls-2" d="M1137.17,318.93v76.89h-57.9V192.31h100.85c47.92,0,71.11,25.65,71.11,56.35,0,28.11-16.43,42.48-30.54,48.27,12.82,4.48,26.53,18.06,26.53,52.52v8.48c0,12.65.4,29.07,2.64,37.89H1193c-3.45-8.76-4.33-23.52-4.33-44.43v-5.26c0-17.57-4.2-27.2-30.51-27.2Zm0-41.56h27.59c19.86,0,27.1-8.26,27.1-22s-8.59-21.55-26.82-21.55h-27.87Z"/></g></g></svg>