<svg xmlns="http://www.w3.org/2000/svg" viewBox="0 0 1800 452.96"><defs><style>.cls-1{fill:#fff;}</style></defs><title>Recurso 4</title><g id="Capa_2" data-name="Capa 2"><g id="Capa_2-2" data-name="Capa 2"><path class="cls-1" d="M655.71,85.25c0-3.91.14-7.14,0-10.36S655,68.48,654.49,64c-15.89,8.73-28.06,20.21-39.73,34,.15-1.76,0-2.81.34-3.55C620,85.09,625,75.77,629.76,66.29a6.37,6.37,0,0,0-.09-5.27c-4.49-7.35-9.35-14.49-14.06-21.71-5.53-8.49-11.2-16.89-16.5-25.51C595.54,8,600,1.7,608.19.2a22.83,22.83,0,0,1,4.14-.1q56.53,0,113.06,0C732.66.1,738,4,741.85,9.73,749.05,20.38,755.93,31.26,763,42c9.18,14,18.44,28,27.55,42.08,7.8,12,15.4,24.22,23.21,36.27,1,1.57,2.7,2.71,4.08,4.05a33.3,33.3,0,0,0,3.8-4.39q10.07-16.73,19.93-33.56c6.08-10.34,12-20.77,18.15-31.06,4.87-8.16,10-16.16,14.95-24.27,4.23-6.93,8.47-13.84,12.48-20.9S897.18.07,905.08.07q30.15,0,60.3,0c13.57,0,27.14.09,40.7,0,5,0,9.07,1.4,11.32,5.9,2,4,.93,8-1.57,11.69-5.49,8.21-10.9,16.48-16.16,24.84-6.83,10.87-13.41,21.91-20.24,32.78-7.59,12.08-15.35,24-23,36.06-7.33,11.48-14.73,22.9-21.94,34.45-8.46,13.57-16.65,27.3-25.11,40.87-7.08,11.35-14.46,22.52-21.44,33.93a6.63,6.63,0,0,0-.15,5.75c3.88,6.4,8.21,12.53,12.42,18.73q9.36,13.77,18.76,27.52c2.68,3.92,5.38,7.83,8,11.81a8.51,8.51,0,0,1,.7,2.6l-.8.74c-2-1.05-4-2.18-6.09-3.14-19.39-9-39.7-13.25-61-10.85-5.62.63-11.09,2.89-16.52,4.73-2.68.91-3.06,3.58-.85,4.78,10,5.43,17.89,13.37,24.79,22.16a185.89,185.89,0,0,1,14.49,21.78c9.24,16,17.6,32.54,27.14,48.37A111.64,111.64,0,0,0,945.58,413c11.09,6.92,22.78,12.62,35.55,15.7q15.14,3.65,30.44,6.54a99.49,99.49,0,0,0,14.25,1.19c3.2.13,4.45,1.76,4.69,4.68.48,5.93-3.63,10.72-10,11.51a37.79,37.79,0,0,1-4.52.14c-36.68,0-73.37-.3-110,.21-12.47.18-19.34-6.36-25-15.92-2.55-4.31-5.32-8.49-8-12.74-7.32-11.62-14.6-23.27-22-34.85-7.26-11.37-14.7-22.64-22-34-7.07-11.05-14-22.18-21.05-33.27-1.2-1.9-2.34-3.85-3.68-5.65-1.52-2.05-3.16-2.4-4.68.13-4.3,7.19-8.65,14.36-12.95,21.56q-7.49,12.54-14.93,25.11c-3.24,5.48-6.39,11-9.67,16.49-7.06,11.76-14.2,23.48-21.26,35.25-3.92,6.54-7.67,13.2-11.66,19.7-2.33,3.81-4.87,7.5-7.55,11.09-3.74,5-9,6.86-15.15,6.86q-54.07-.06-108.16,0c-2.76,0-5.53.18-8.29.11a13.59,13.59,0,0,1-3.08-.84,11.57,11.57,0,0,1,.9-2.68c8.38-13.18,16.85-26.32,25.22-39.5,6.84-10.77,13.44-21.69,20.42-32.36q9.95-15.24,20.47-30.08a216.7,216.7,0,0,1,39.91-43.17c12-9.79,24.65-19,39-25.14,12.18-5.24,24.67-9.73,37-14.52,11.52-4.46,23.31-8.32,34.52-13.46,14.46-6.63,22.69-18.78,26.79-33.92.89-3.3-.55-4.82-3.63-5.08-6.74-.56-13.5-1-20.24-1.52-17.13-1.4-33.46-5.36-46.94-16.7a46.64,46.64,0,0,1-9.51-12c-7.28-12.31-16.38-23-28.69-30.19-8.68-5-18.33-8.44-27.6-12.43a76.59,76.59,0,0,0-8.23-2.64c-4.1-1.23-5.26-2.69-4.49-6.89,1.36-7.4,3.16-14.72,4.5-22.12a209.21,209.21,0,0,0,3.22-45c-.11-3-2.26-3.84-5.08-1.76-4.64,3.43-9.15,7-13.54,10.78C665.89,75.91,661.08,80.42,655.71,85.25Z"/><path class="cls-1" d="M712.61,187.16c10.12,2.89,17.3,12.74,29.73,13.1-3.51,4.21-7.28,6.39-11.35,5.83C720.18,204.6,712.65,199.21,712.61,187.16Z"/><path class="cls-1" d="M0,81.63H218.92v63.58H84v56.91H210.29V266H84V374.4H0Z"/><path class="cls-1" d="M546.64,227.76c0,82.81-49.88,152.08-150.16,152.08C298,379.84,250.42,311,250.42,228.16c0-84.25,52.2-152,150.46-152C493.15,76.19,546.64,140.18,546.64,227.76Zm-207.76-.87c0,53.75,17.86,91.14,60.3,91.14,44.6,0,59.3-39.68,59.3-89.57,0-53.41-15.6-90.47-60.43-90.47C356.38,138,338.88,172.4,338.88,226.89Z"/><path class="cls-1" d="M1161.7,81.63V374.4h-86V81.63Z"/><path class="cls-1" d="M1505.41,227.76c0,82.81-49.89,152.08-150.16,152.08-98.47,0-146.06-68.83-146.06-151.68,0-84.25,52.2-152,150.46-152C1451.92,76.19,1505.41,140.18,1505.41,227.76Zm-207.76-.87c0,53.75,17.86,91.14,60.3,91.14,44.6,0,59.3-39.68,59.3-89.57,0-53.41-15.6-90.47-60.43-90.47C1315.15,138,1297.65,172.4,1297.65,226.89Z"/><path class="cls-1" d="M1635.91,263.78V374.4h-83.29V81.63h145.07c68.94,0,102.31,36.9,102.31,81.07,0,40.43-23.64,61.11-43.94,69.44,18.44,6.44,38.16,26,38.16,75.55v12.19c0,18.21.58,41.83,3.8,54.52h-81.76c-5-12.61-6.22-33.84-6.22-63.93v-7.56c0-25.28-6-39.13-43.89-39.13Zm0-59.79h39.69c28.57,0,39-11.88,39-31.57s-12.36-31-38.58-31h-40.09Z"/></g></g></svg>