<svg xmlns="http://www.w3.org/2000/svg" viewBox="0 0 430.96 586"><defs><style>.cls-1{fill:#ff5722;}.cls-2{fill:#fff;}</style></defs><title>Recurso 5</title><g id="Capa_2" data-name="Capa 2"><g id="Capa_1-2" data-name="Capa 1"><rect class="cls-1" width="430.96" height="586"/><path class="cls-2" d="M109.13,194.83c0-2.72.1-5,0-7.2s-.47-4.46-.82-7.55c-11,6.07-19.5,14-27.62,23.64a8.23,8.23,0,0,1,.24-2.46c3.39-6.55,6.9-13,10.19-19.61A4.41,4.41,0,0,0,91,178c-3.13-5.12-6.5-10.07-9.78-15.1-3.84-5.9-7.78-11.74-11.47-17.73-2.48-4,.6-8.41,6.32-9.46a16.13,16.13,0,0,1,2.87-.06q39.3,0,78.6,0c5.05,0,8.75,2.73,11.43,6.7,5,7.41,9.79,15,14.69,22.45,6.38,9.76,12.81,19.47,19.15,29.25,5.42,8.38,10.71,16.84,16.13,25.22a18.81,18.81,0,0,0,2.83,2.81,21.7,21.7,0,0,0,2.65-3.05q7-11.62,13.85-23.33c4.23-7.18,8.35-14.43,12.62-21.59,3.38-5.67,7-11.23,10.39-16.87,2.94-4.81,5.89-9.62,8.68-14.52s7-7.08,12.48-7.09h41.92c9.43,0,18.86.07,28.29,0,3.46,0,6.3,1,7.87,4.1,1.41,2.81.65,5.53-1.09,8.12-3.82,5.71-7.58,11.46-11.23,17.27-4.76,7.56-9.33,15.23-14.08,22.79-5.27,8.39-10.66,16.71-16,25.06-5.09,8-10.24,15.92-15.25,24-5.88,9.43-11.57,19-17.45,28.41-4.92,7.89-10.05,15.66-14.91,23.59a4.62,4.62,0,0,0-.1,4c2.7,4.45,5.71,8.72,8.63,13q6.51,9.57,13,19.12c1.86,2.73,3.75,5.45,5.55,8.21a6.11,6.11,0,0,1,.49,1.81l-.56.51c-1.41-.73-2.79-1.51-4.23-2.18-13.48-6.22-27.6-9.2-42.42-7.54-3.91.44-7.71,2-11.49,3.29-1.86.63-2.13,2.49-.59,3.32,7,3.78,12.44,9.3,17.23,15.41A127.82,127.82,0,0,1,266.16,363c6.43,11.13,12.24,22.63,18.87,33.63a77.67,77.67,0,0,0,25.6,26.05c7.71,4.81,15.83,8.77,24.71,10.91q10.52,2.54,21.16,4.55a69.47,69.47,0,0,0,9.9.83c2.22.09,3.1,1.23,3.26,3.26.34,4.11-2.52,7.45-7,8a25.28,25.28,0,0,1-3.14.1c-25.5,0-51-.21-76.5.15-8.67.12-13.45-4.42-17.37-11.07-1.77-3-3.7-5.9-5.56-8.85-5.09-8.08-10.15-16.18-15.29-24.23s-10.23-15.74-15.28-23.64c-4.92-7.69-9.76-15.42-14.64-23.13-.83-1.32-1.62-2.67-2.55-3.92-1.06-1.43-2.2-1.67-3.25.08-3,5-6,10-9,15q-5.2,8.71-10.38,17.45c-2.25,3.82-4.44,7.67-6.72,11.47-4.91,8.18-9.87,16.32-14.78,24.5-2.73,4.55-5.33,9.17-8.1,13.69-1.63,2.65-3.39,5.22-5.25,7.71-2.6,3.49-6.26,4.78-10.53,4.77q-37.59,0-75.19,0c-1.92,0-3.84.13-5.76.07a9.32,9.32,0,0,1-2.14-.58,8.13,8.13,0,0,1,.62-1.86c5.83-9.17,11.71-18.29,17.54-27.46,4.75-7.49,9.34-15.08,14.19-22.5q6.91-10.57,14.23-20.9a150.31,150.31,0,0,1,27.74-30c8.36-6.81,17.14-13.18,27.11-17.48,8.47-3.64,17.15-6.76,25.75-10.09,8-3.1,16.2-5.78,24-9.36,10.06-4.6,15.77-13.05,18.62-23.58.63-2.29-.38-3.35-2.52-3.53-4.68-.39-9.38-.67-14.07-1-11.9-1-23.25-3.73-32.62-11.62a32.27,32.27,0,0,1-6.61-8.31c-5.07-8.56-11.39-16-20-21-6-3.51-12.74-5.87-19.18-8.64a53.07,53.07,0,0,0-5.73-1.83c-2.85-.86-3.65-1.87-3.12-4.79,1-5.15,2.2-10.23,3.13-15.38a144.93,144.93,0,0,0,2.24-31.26c-.08-2.1-1.57-2.67-3.53-1.22-3.23,2.38-6.36,4.89-9.41,7.49C116.2,188.34,112.86,191.47,109.13,194.83Z"/><path class="cls-2" d="M148.68,265.67c7,2,12,8.86,20.67,9.1-2.44,2.93-5.07,4.45-7.89,4.06C154,277.79,148.71,274,148.68,265.67Z"/></g></g></svg>